<?xml version="1.0" encoding="utf-8"?>
<!-- Generator: Adobe Illustrator 16.0.4, SVG Export Plug-In . SVG Version: 6.00 Build 0)  -->
<!DOCTYPE svg PUBLIC "-//W3C//DTD SVG 1.1//EN" "http://www.w3.org/Graphics/SVG/1.1/DTD/svg11.dtd">
<svg version="1.1" id="Layer_1" xmlns="http://www.w3.org/2000/svg" xmlns:xlink="http://www.w3.org/1999/xlink" x="0px" y="0px"
	 width="50px" height="50px" viewBox="0 0 50 50" enable-background="new 0 0 50 50" xml:space="preserve">
<g>
	<path d="M35.748,25.808c-0.178-0.074-0.379-0.035-0.516,0.103l-0.845,0.844v-6.059c0-1.696-1.009-3.249-2.539-3.961v-4.174
		c0.058-0.077,0.11-0.162,0.11-0.267v-1.819c0-0.262-0.211-0.474-0.473-0.474h-0.111h-2.732h-0.113
		c-0.261,0-0.473,0.212-0.473,0.474v1.819c0,0.106,0.053,0.194,0.113,0.272v4.168c-1.532,0.71-2.539,2.262-2.539,3.961v5.49
		l-0.277-0.276c-0.086-0.086-0.217-0.125-0.346-0.129v-3.586c0-0.669-0.299-1.259-0.757-1.678c0.444-0.255,0.757-0.716,0.757-1.263
		c0-0.812-0.663-1.475-1.475-1.475h-6.641c-0.815,0-1.478,0.662-1.478,1.475c0,0.547,0.313,1.007,0.757,1.262
		c-0.458,0.42-0.757,1.01-0.757,1.679v4.36l-0.646-0.646c-0.137-0.138-0.339-0.177-0.516-0.103
		c-0.177,0.071-0.292,0.243-0.292,0.437v13.283c0,0.262,0.212,0.475,0.473,0.475h21.116c0.261,0,0.472-0.211,0.473-0.473
		l0.02-13.285C36.041,26.053,35.924,25.879,35.748,25.808z M35.076,39.055h-20.17v-11.67l0.508,0.508l0.473,0.475l0.473,0.473
		l0.36,0.361c0.178,0.176,0.492,0.176,0.669,0l2.315-2.316l2.315,2.316c0.178,0.176,0.492,0.176,0.669,0l1.371-1.373l0.473-0.474
		l0.464-0.464l0.009,0.01l0.625,0.623l0.945,0.945l0.61,0.609l0.121,0.121c0.179,0.182,0.493,0.176,0.669,0l0.122-0.121l2.194-2.197
		l2.195,2.197l0.121,0.121c0.178,0.176,0.492,0.176,0.669,0l0.121-0.121h0.041v-0.039l0.946-0.949l0.705-0.705L35.076,39.055z
		 M16.359,19.253c0-0.292,0.238-0.528,0.531-0.528h6.641c0.292,0,0.529,0.236,0.529,0.528s-0.237,0.529-0.529,0.529h-6.641
		C16.598,19.783,16.359,19.545,16.359,19.253z M17.706,20.847h5.009c0.742,0,1.346,0.604,1.346,1.348v1.384h-7.701v-1.384
		C16.359,21.451,16.962,20.847,17.706,20.847z M16.359,24.523h7.701v1.967l-1.706,1.706l-2.287-2.288
		c-0.178-0.176-0.547-0.176-0.725,0l-2.288,2.288l-0.695-0.694V24.523z M29.115,10.946h1.787v0.874h-1.787V10.946z M26.576,20.694
		c0-1.417,0.896-2.705,2.231-3.204c0.187-0.069,0.308-0.245,0.308-0.443v-4.28h1.787v4.28c0,0.198,0.123,0.374,0.307,0.442
		c1.336,0.502,2.232,1.789,2.232,3.205v0.532h-6.865V20.694z M26.576,22.173h6.865v5.528l-0.496,0.495l-2.287-2.288
		c-0.179-0.176-0.553-0.176-0.729,0l-2.285,2.288l-1.065-1.065v-4.958H26.576z"/>
	<path d="M32.416,30.867h-0.002c-0.261,0-0.472,0.211-0.473,0.471l-0.004,1.99l-0.002,0.945l-0.006,2.271H18.058v-2.271v-0.475
		v-0.473v-1.988c0-0.26-0.212-0.473-0.473-0.473c-0.261,0-0.473,0.213-0.473,0.473v1.834v0.506v0.475v2.866
		c0,0.261,0.212,0.474,0.473,0.474h14.817c0.261,0,0.472-0.211,0.474-0.473l0.006-2.746l0.002-0.945l0.006-1.986
		C32.888,31.08,32.676,30.867,32.416,30.867z"/>
</g>
</svg>
